<?xml version="1.0" encoding="UTF-8" standalone="no"?>
<!DOCTYPE svg PUBLIC "-//W3C//DTD SVG 1.1//EN" "http://www.w3.org/Graphics/SVG/1.1/DTD/svg11.dtd">
<svg width="100%" height="100%" viewBox="0 0 24 24" version="1.1" xmlns="http://www.w3.org/2000/svg" xmlns:xlink="http://www.w3.org/1999/xlink" xml:space="preserve" xmlns:serif="http://www.serif.com/" style="fill-rule:evenodd;clip-rule:evenodd;stroke-linejoin:round;stroke-miterlimit:2;">
    <g transform="matrix(1.34443,0,0,1.34812,-4.10738,-2.79216)">
        <path d="M18.1,5.1C18.1,5.4 18,5.7 17.8,6L16.4,7.4L15.5,6.6L17.7,4.4C18,4.5 18.1,4.8 18.1,5.1ZM17.6,10.4L20.8,10.4C20.8,10.7 20.7,11 20.4,11.3C20.1,11.6 19.9,11.7 19.6,11.7L17.6,11.7L17.6,10.4ZM11.4,5.4L11.4,2.2C11.7,2.2 12,2.3 12.3,2.6C12.6,2.9 12.7,3.1 12.7,3.4L12.7,5.4L11.4,5.4ZM17.8,17.1C17.5,17.1 17.2,17 17,16.8L15.6,15.4L16.4,14.6L18.6,16.8C18.4,17 18.1,17.1 17.8,17.1ZM6.2,4.9C6.5,4.9 6.8,5 7,5.2L8.4,6.6L7.6,7.5L5.4,5.2C5.6,5 5.9,4.9 6.2,4.9ZM11.4,16.6L12.6,16.6L12.6,19.8C12.3,19.8 12,19.7 11.7,19.4C11.4,19.1 11.3,18.9 11.3,18.6L11.4,16.6ZM4.4,10.4L6.4,10.4L6.4,11.6L3.2,11.6C3.2,11.3 3.3,11 3.6,10.7C3.9,10.4 4.1,10.4 4.4,10.4ZM6.2,16L7.6,14.6L8.4,15.4L6.2,17.6C6,17.4 5.9,17.1 5.9,16.8C5.9,16.5 6,16.2 6.2,16Z" style="fill:white;fill-rule:nonzero;"/>
    </g>
    <g transform="matrix(1.36364,0,0,1.35799,-4.36364,-2.98758)">
        <circle cx="12" cy="11" r="4" style="fill:white;"/>
    </g>
</svg>
