<svg clip-rule="evenodd" fill-rule="evenodd" height="14.2222in" image-rendering="optimizeQuality" shape-rendering="geometricPrecision" text-rendering="geometricPrecision" viewBox="0 0 14222 14222" width="14.2222in" xmlns="http://www.w3.org/2000/svg" version="1.1" xmlns:xlink="http://www.w3.org/1999/xlink"><g fill-rule="nonzero"><path d="m14222 7111c0-3927-3184-7111-7111-7111s-7111 3184-7111 7111c0 3549 2600 6491 6000 7025v-4969h-1806v-2056h1806v-1567c0-1782 1062-2767 2686-2767 778 0 1592 139 1592 139v1750h-897c-883 0-1159 548-1159 1111v1334h1972l-315 2056h-1657v4969c3400-533 6000-3475 6000-7025z" fill="#1977f3"/><path d="m9879 9167 315-2056h-1972v-1334c0-562 275-1111 1159-1111h897v-1750s-814-139-1592-139c-1624 0-2686 984-2686 2767v1567h-1806v2056h1806v4969c362 57 733 86 1111 86s749-30 1111-86v-4969z" fill="#fefefe"/></g></svg>
